# xmcd CD database file
#
# Track frame offsets:
#	150
#	17800
#	36125
#	54504
#	77028
#	96284
#	114795
#	134579
#	156001
#	171914
#
# Disc length: 2556 seconds
#
# Revision: 0
# Processed by: cddbd v1.5.2PL0 Copyright (c) Steve Scherf et al.
# Submitted via: CDex 1.51
#
DISCID=7909fa0a
DTITLE=Michael Lington - Heat
DYEAR=2008
DGENRE=Jazz
TTITLE0=You and I
TTITLE1=Chuva (featuring Torcuato Mariano)
TTITLE2=Ocean Drive
TTITLE3=Baker Street (featuring Ace Young)
TTITLE4=Angelina
TTITLE5=Memphis
TTITLE6=That's When You Save Me (featuring Aaron Neville)
TTITLE7=Ladyland
TTITLE8=Shout About Ya' (featuring Keely Hawkes)
TTITLE9=Nostalgia (featuring Michael Sembello)
EXTD=YEAR: 2008
EXTT0=
EXTT1=
EXTT2=
EXTT3=
EXTT4=
EXTT5=
EXTT6=
EXTT7=
EXTT8=
EXTT9=
PLAYORDER=
